<svg height="64" viewBox="0 0 32 32" width="64" xmlns="http://www.w3.org/2000/svg"><g transform="matrix(.10293331 0 0 .10293331 397.0135 80.58585)"><path d="m-3744.0978-542.5583s-11.9391 7.2672 8.3052 9.34351c24.3967 3.11437 37.3741 2.59576 64.3663-2.59534 0 0 7.2672 4.67165 17.1297 8.30546-60.7327 25.9542-137.557-1.5577-89.8013-15.0536zm-7.7864-33.7402s-12.9769 9.86233 7.2672 11.9386c26.4735 2.59576 47.2368 3.11437 83.0534-4.15263 0 0 4.6718 5.19089 12.4579 7.78643-73.1906 21.8016-155.206 2.07631-102.778-15.5725zm143.267 59.1754s8.8245 7.26741-9.8626 12.9769c-34.7787 10.3818-145.863 13.4961-177.008 0-10.9006-4.67144 9.8628-11.4198 16.6105-12.4579 6.7482-1.55708 10.3816-1.55708 10.3816-1.55708-11.9384-8.30546-79.4195 17.1295-34.2595 24.3967 124.061 20.2443 226.321-8.82428 194.137-23.3587zm-129.771-94.4732s-56.5799 13.4961-20.2439 18.1678c15.5725 2.0761 46.1983 1.5575 74.7481-.51903 23.3585-2.07631 46.7176-6.22894 46.7176-6.22894s-8.3055 3.63339-14.0156 7.26741c-57.6179 15.053-168.183 8.30504-136.519-7.26741 26.9923-12.9773 49.3125-11.4198 49.3125-11.4198zm101.222 56.5799c58.1372-30.1069 31.1451-59.1754 12.4579-55.5416-4.6719 1.03805-6.7482 2.07631-6.7482 2.07631s1.5573-3.11457 5.1907-4.15263c36.8552-12.9773 65.9238 38.9309-11.9384 59.1752 0 0 .5186-.51903 1.038-1.55729zm-95.5117 82.0153c56.0613 3.63381 141.71-2.07631 143.786-28.5494 0 0-4.1525 10.3818-46.1981 18.1676-47.7558 8.8247-106.931 7.78643-141.71 2.07631 0 0 7.267 6.22915 44.122 8.30546z" fill="#4e7896"/><path d="m-3672.464-782.89391s32.1832 32.7022-30.6261 82.0153c-50.3512 39.9692-11.4198 62.8088 0 88.7629-29.5878-26.4728-50.8702-49.8319-36.336-71.6335 21.2828-32.1832 79.939-47.7554 66.9621-99.1446zm-16.6105 148.977c15.053 17.1299-4.1528 32.7026-4.1528 32.7026s38.4121-19.7253 20.7633-44.1224c-16.0919-23.3585-28.5498-34.7783 38.9311-73.7098 0 0-106.412 26.4735-55.5416 85.1297z" fill="#f58219"/></g></svg>